<?xml version="1.0" encoding="UTF-8" standalone="no"?>
<!DOCTYPE svg PUBLIC "-//W3C//DTD SVG 1.1//EN"
 "http://www.w3.org/Graphics/SVG/1.1/DTD/svg11.dtd">
<!-- Generated by graphviz version 2.40.1 (0)
 -->
<!-- Title: snakemake_dag Pages: 1 -->
<svg width="552pt" height="404pt"
 viewBox="0.00 0.00 552.41 404.00" xmlns="http://www.w3.org/2000/svg" xmlns:xlink="http://www.w3.org/1999/xlink">
<g id="graph0" class="graph" transform="scale(1 1) rotate(0) translate(4 400)">
<title>snakemake_dag</title>
<polygon fill="#ffffff" stroke="transparent" points="-4,4 -4,-400 548.4146,-400 548.4146,4 -4,4"/>
<!-- 0 -->
<g id="node1" class="node">
<title>0</title>
<path fill="none" stroke="#56d8d8" stroke-width="2" d="M165,-36C165,-36 135,-36 135,-36 129,-36 123,-30 123,-24 123,-24 123,-12 123,-12 123,-6 129,0 135,0 135,0 165,0 165,0 171,0 177,-6 177,-12 177,-12 177,-24 177,-24 177,-30 171,-36 165,-36"/>
<text text-anchor="middle" x="150" y="-15.5" font-family="sans" font-size="10.00" fill="#000000">all</text>
</g>
<!-- 1 -->
<g id="node2" class="node">
<title>1</title>
<path fill="none" stroke="#d89556" stroke-width="2" stroke-dasharray="5,2" d="M143.5,-396C143.5,-396 66.5,-396 66.5,-396 60.5,-396 54.5,-390 54.5,-384 54.5,-384 54.5,-372 54.5,-372 54.5,-366 60.5,-360 66.5,-360 66.5,-360 143.5,-360 143.5,-360 149.5,-360 155.5,-366 155.5,-372 155.5,-372 155.5,-384 155.5,-384 155.5,-390 149.5,-396 143.5,-396"/>
<text text-anchor="middle" x="105" y="-375.5" font-family="sans" font-size="10.00" fill="#000000">simplex_basecall</text>
</g>
<!-- 1&#45;&gt;0 -->
<g id="edge1" class="edge">
<title>1&#45;&gt;0</title>
<path fill="none" stroke="#c0c0c0" stroke-width="2" d="M71.5192,-359.8088C57.3448,-350.6728 41.6757,-338.4572 31,-324 5.8689,-289.9669 0,-276.3063 0,-234 0,-234 0,-234 0,-162 0,-99.1454 69.3881,-55.1778 113.7774,-33.4814"/>
<polygon fill="#c0c0c0" stroke="#c0c0c0" stroke-width="2" points="115.2967,-36.6346 122.8361,-29.1909 112.3004,-30.3083 115.2967,-36.6346"/>
</g>
<!-- 2 -->
<g id="node3" class="node">
<title>2</title>
<path fill="none" stroke="#97d856" stroke-width="2" stroke-dasharray="5,2" d="M158,-324C158,-324 52,-324 52,-324 46,-324 40,-318 40,-312 40,-312 40,-300 40,-300 40,-294 46,-288 52,-288 52,-288 158,-288 158,-288 164,-288 170,-294 170,-300 170,-300 170,-312 170,-312 170,-318 164,-324 158,-324"/>
<text text-anchor="middle" x="105" y="-303.5" font-family="sans" font-size="10.00" fill="#000000">samtools_sam_to_bam</text>
</g>
<!-- 1&#45;&gt;2 -->
<g id="edge8" class="edge">
<title>1&#45;&gt;2</title>
<path fill="none" stroke="#c0c0c0" stroke-width="2" d="M105,-359.8314C105,-352.131 105,-342.9743 105,-334.4166"/>
<polygon fill="#c0c0c0" stroke="#c0c0c0" stroke-width="2" points="108.5001,-334.4132 105,-324.4133 101.5001,-334.4133 108.5001,-334.4132"/>
</g>
<!-- 4 -->
<g id="node5" class="node">
<title>4</title>
<path fill="none" stroke="#569ad8" stroke-width="2" stroke-dasharray="5,2" d="M512.5,-252C512.5,-252 329.5,-252 329.5,-252 323.5,-252 317.5,-246 317.5,-240 317.5,-240 317.5,-228 317.5,-228 317.5,-222 323.5,-216 329.5,-216 329.5,-216 512.5,-216 512.5,-216 518.5,-216 524.5,-222 524.5,-228 524.5,-228 524.5,-240 524.5,-240 524.5,-246 518.5,-252 512.5,-252"/>
<text text-anchor="middle" x="421" y="-231.5" font-family="sans" font-size="10.00" fill="#000000">find_duplex_pairs_from_nonsplit_reads</text>
</g>
<!-- 1&#45;&gt;4 -->
<g id="edge10" class="edge">
<title>1&#45;&gt;4</title>
<path fill="none" stroke="#c0c0c0" stroke-width="2" d="M144.7017,-359.9081C202.4088,-333.6112 309.3788,-284.8654 371.9411,-256.356"/>
<polygon fill="#c0c0c0" stroke="#c0c0c0" stroke-width="2" points="373.5638,-259.4628 381.2122,-252.1311 370.6611,-253.093 373.5638,-259.4628"/>
</g>
<!-- 2&#45;&gt;0 -->
<g id="edge2" class="edge">
<title>2&#45;&gt;0</title>
<path fill="none" stroke="#c0c0c0" stroke-width="2" d="M82.7787,-287.9032C72.8692,-278.3888 62.26,-265.8349 57,-252 51.3139,-237.0445 54.5862,-231.8169 57,-216 67.1158,-149.7152 68.9882,-130.3629 102,-72 107.6737,-61.9692 115.4573,-52.1831 123.1057,-43.758"/>
<polygon fill="#c0c0c0" stroke="#c0c0c0" stroke-width="2" points="125.7016,-46.1069 130.0273,-36.4353 120.6145,-41.2984 125.7016,-46.1069"/>
</g>
<!-- 3 -->
<g id="node4" class="node">
<title>3</title>
<path fill="none" stroke="#d85656" stroke-width="2" d="M156,-252C156,-252 78,-252 78,-252 72,-252 66,-246 66,-240 66,-240 66,-228 66,-228 66,-222 72,-216 78,-216 78,-216 156,-216 156,-216 162,-216 168,-222 168,-228 168,-228 168,-240 168,-240 168,-246 162,-252 156,-252"/>
<text text-anchor="middle" x="117" y="-231.5" font-family="sans" font-size="10.00" fill="#000000">find_duplex_pairs</text>
</g>
<!-- 2&#45;&gt;3 -->
<g id="edge9" class="edge">
<title>2&#45;&gt;3</title>
<path fill="none" stroke="#c0c0c0" stroke-width="2" d="M108.0281,-287.8314C109.3115,-280.131 110.8376,-270.9743 112.2639,-262.4166"/>
<polygon fill="#c0c0c0" stroke="#c0c0c0" stroke-width="2" points="115.7394,-262.8526 113.9311,-252.4133 108.8347,-261.7018 115.7394,-262.8526"/>
</g>
<!-- 3&#45;&gt;0 -->
<g id="edge3" class="edge">
<title>3&#45;&gt;0</title>
<path fill="none" stroke="#c0c0c0" stroke-width="2" d="M107.4092,-215.5602C102.6501,-205.373 97.4131,-192.3186 95,-180 91.9243,-164.2984 91.7306,-159.6624 95,-144 102.4818,-108.1582 120.746,-70.0278 134.184,-45.2216"/>
<polygon fill="#c0c0c0" stroke="#c0c0c0" stroke-width="2" points="137.2864,-46.8437 139.0653,-36.3993 131.1615,-43.4547 137.2864,-46.8437"/>
</g>
<!-- 5 -->
<g id="node6" class="node">
<title>5</title>
<path fill="none" stroke="#59d856" stroke-width="2" d="M283.5,-180C283.5,-180 116.5,-180 116.5,-180 110.5,-180 104.5,-174 104.5,-168 104.5,-168 104.5,-156 104.5,-156 104.5,-150 110.5,-144 116.5,-144 116.5,-144 283.5,-144 283.5,-144 289.5,-144 295.5,-150 295.5,-156 295.5,-156 295.5,-168 295.5,-168 295.5,-174 289.5,-180 283.5,-180"/>
<text text-anchor="middle" x="200" y="-159.5" font-family="sans" font-size="10.00" fill="#000000">stereo_basecall_from_main_pairing</text>
</g>
<!-- 3&#45;&gt;5 -->
<g id="edge11" class="edge">
<title>3&#45;&gt;5</title>
<path fill="none" stroke="#c0c0c0" stroke-width="2" d="M137.9444,-215.8314C148.0691,-207.0485 160.3777,-196.3712 171.3548,-186.8489"/>
<polygon fill="#c0c0c0" stroke="#c0c0c0" stroke-width="2" points="173.8019,-189.3595 179.0623,-180.1628 169.2149,-184.0718 173.8019,-189.3595"/>
</g>
<!-- 4&#45;&gt;0 -->
<g id="edge4" class="edge">
<title>4&#45;&gt;0</title>
<path fill="none" stroke="#c0c0c0" stroke-width="2" d="M492.9316,-215.9056C510.6374,-207.8827 527.5102,-196.3946 538,-180 546.6233,-166.5226 546.4117,-157.6104 538,-144 500.0795,-82.6434 276.8774,-39.1585 187.2363,-23.9481"/>
<polygon fill="#c0c0c0" stroke="#c0c0c0" stroke-width="2" points="187.677,-20.4733 177.2365,-22.275 186.5218,-27.3773 187.677,-20.4733"/>
</g>
<!-- 6 -->
<g id="node7" class="node">
<title>6</title>
<path fill="none" stroke="#d6d856" stroke-width="2" stroke-dasharray="5,2" d="M516.5,-180C516.5,-180 325.5,-180 325.5,-180 319.5,-180 313.5,-174 313.5,-168 313.5,-168 313.5,-156 313.5,-156 313.5,-150 319.5,-144 325.5,-144 325.5,-144 516.5,-144 516.5,-144 522.5,-144 528.5,-150 528.5,-156 528.5,-156 528.5,-168 528.5,-168 528.5,-174 522.5,-180 516.5,-180"/>
<text text-anchor="middle" x="421" y="-159.5" font-family="sans" font-size="10.00" fill="#000000">stereo_basecall_from_additional_pairing</text>
</g>
<!-- 4&#45;&gt;6 -->
<g id="edge12" class="edge">
<title>4&#45;&gt;6</title>
<path fill="none" stroke="#c0c0c0" stroke-width="2" d="M421,-215.8314C421,-208.131 421,-198.9743 421,-190.4166"/>
<polygon fill="#c0c0c0" stroke="#c0c0c0" stroke-width="2" points="424.5001,-190.4132 421,-180.4133 417.5001,-190.4133 424.5001,-190.4132"/>
</g>
<!-- 5&#45;&gt;0 -->
<g id="edge5" class="edge">
<title>5&#45;&gt;0</title>
<path fill="none" stroke="#c0c0c0" stroke-width="2" d="M188.0623,-143.651C181.9067,-133.4904 174.7206,-120.4325 170,-108 162.3532,-87.8608 157.2189,-64.0221 154.0688,-45.94"/>
<polygon fill="#c0c0c0" stroke="#c0c0c0" stroke-width="2" points="157.5155,-45.3298 152.4393,-36.0302 150.6083,-46.4656 157.5155,-45.3298"/>
</g>
<!-- 7 -->
<g id="node8" class="node">
<title>7</title>
<path fill="none" stroke="#56d89a" stroke-width="2" d="M343.5,-108C343.5,-108 190.5,-108 190.5,-108 184.5,-108 178.5,-102 178.5,-96 178.5,-96 178.5,-84 178.5,-84 178.5,-78 184.5,-72 190.5,-72 190.5,-72 343.5,-72 343.5,-72 349.5,-72 355.5,-78 355.5,-84 355.5,-84 355.5,-96 355.5,-96 355.5,-102 349.5,-108 343.5,-108"/>
<text text-anchor="middle" x="267" y="-87.5" font-family="sans" font-size="10.00" fill="#000000">split_chimeric_reads_on_adapter</text>
</g>
<!-- 5&#45;&gt;7 -->
<g id="edge13" class="edge">
<title>5&#45;&gt;7</title>
<path fill="none" stroke="#c0c0c0" stroke-width="2" d="M216.9069,-143.8314C224.7813,-135.3694 234.292,-125.1489 242.9013,-115.8971"/>
<polygon fill="#c0c0c0" stroke="#c0c0c0" stroke-width="2" points="245.6153,-118.1183 249.8654,-108.4133 240.4908,-113.3497 245.6153,-118.1183"/>
</g>
<!-- 6&#45;&gt;0 -->
<g id="edge6" class="edge">
<title>6&#45;&gt;0</title>
<path fill="none" stroke="#c0c0c0" stroke-width="2" d="M414.5526,-143.8652C406.2903,-123.2845 389.9791,-90.2178 365,-72 336.8692,-51.4836 241.1006,-32.9931 187.3579,-23.9136"/>
<polygon fill="#c0c0c0" stroke="#c0c0c0" stroke-width="2" points="187.6408,-20.4127 177.2022,-22.2254 186.4928,-27.3179 187.6408,-20.4127"/>
</g>
<!-- 6&#45;&gt;7 -->
<g id="edge14" class="edge">
<title>6&#45;&gt;7</title>
<path fill="none" stroke="#c0c0c0" stroke-width="2" d="M382.1393,-143.8314C361.7258,-134.2874 336.5277,-122.5065 314.914,-112.4013"/>
<polygon fill="#c0c0c0" stroke="#c0c0c0" stroke-width="2" points="316.1225,-109.1027 305.5813,-108.038 313.1577,-115.4439 316.1225,-109.1027"/>
</g>
<!-- 7&#45;&gt;0 -->
<g id="edge7" class="edge">
<title>7&#45;&gt;0</title>
<path fill="none" stroke="#c0c0c0" stroke-width="2" d="M237.476,-71.8314C221.8255,-62.2003 202.4734,-50.2913 185.9535,-40.1252"/>
<polygon fill="#c0c0c0" stroke="#c0c0c0" stroke-width="2" points="187.4596,-36.9424 177.1086,-34.6822 183.7909,-42.9041 187.4596,-36.9424"/>
</g>
</g>
</svg>
